<?xml version="1.0" encoding="UTF-8"?>
<!DOCTYPE svg PUBLIC "-//W3C//DTD SVG 1.1//EN" "http://www.w3.org/Graphics/SVG/1.1/DTD/svg11.dtd">
<svg xmlns="http://www.w3.org/2000/svg" version="1.1" width="723px" height="535px" style="shape-rendering:geometricPrecision; text-rendering:geometricPrecision; image-rendering:optimizeQuality; fill-rule:evenodd; clip-rule:evenodd" xmlns:xlink="http://www.w3.org/1999/xlink">
<g><path style="opacity:1" fill="#f9f9f9" d="M -0.5,-0.5 C 240.5,-0.5 481.5,-0.5 722.5,-0.5C 722.5,177.833 722.5,356.167 722.5,534.5C 481.5,534.5 240.5,534.5 -0.5,534.5C -0.5,356.167 -0.5,177.833 -0.5,-0.5 Z"/></g>
<g><path style="opacity:1" fill="#ededed" d="M 683.5,31.5 C 685.827,31.2471 687.827,31.9137 689.5,33.5C 691.99,48.4099 693.49,63.4099 694,78.5C 690.147,82.2222 687.147,81.5555 685,76.5C 683.682,63.1401 682.182,49.8067 680.5,36.5C 681.092,34.5775 682.092,32.9108 683.5,31.5 Z"/></g>
<g><path style="opacity:1" fill="#868592" d="M 32.5,71.5 C 30.7354,72.4614 28.7354,72.7947 26.5,72.5C 26.5,68.8333 26.5,65.1667 26.5,61.5C 28.7925,61.2436 30.9592,61.5769 33,62.5C 33.3729,64.6982 33.8729,66.8649 34.5,69C 34.3613,70.301 33.6946,71.1344 32.5,71.5 Z"/></g>
<g><path style="opacity:1" fill="#f2f4ed" d="M 27.5,62.5 C 29.6648,62.1159 31.3315,62.7826 32.5,64.5C 31.3315,66.2174 29.6648,66.8841 27.5,66.5C 27.5,65.1667 27.5,63.8333 27.5,62.5 Z"/></g>
<g><path style="opacity:1" fill="#f2f5f0" d="M 32.5,71.5 C 30.8333,71.5 29.1667,71.5 27.5,71.5C 27.5,70.1667 27.5,68.8333 27.5,67.5C 29.1667,67.5 30.8333,67.5 32.5,67.5C 32.5,68.8333 32.5,70.1667 32.5,71.5 Z"/></g>
<g><path style="opacity:1" fill="#9d959d" d="M 36.5,64.5 C 38.5,64.5 40.5,64.5 42.5,64.5C 42.8204,67.8984 42.487,71.2317 41.5,74.5C 36.0636,72.961 34.3969,69.6276 36.5,64.5 Z"/></g>
<g><path style="opacity:1" fill="#f7f2ef" d="M 37.5,65.5 C 38.5,65.5 39.5,65.5 40.5,65.5C 40.7989,67.604 40.4656,69.604 39.5,71.5C 37.7175,69.9775 37.0508,67.9775 37.5,65.5 Z"/></g>
<g><path style="opacity:1" fill="#cdf8ae" d="M 495.5,237.5 C 482.132,236.431 472.966,242.098 468,254.5C 465.665,268.159 470.498,278.159 482.5,284.5C 470.557,327.378 459.057,370.378 448,413.5C 447.058,416.443 445.892,419.276 444.5,422C 426.167,422.167 407.833,422.333 389.5,422.5C 370.821,422.5 352.488,421.833 334.5,420.5C 334.5,419.167 334.5,417.833 334.5,416.5C 344.243,383.492 353.243,350.158 361.5,316.5C 362.451,315.081 362.784,313.415 362.5,311.5C 364.101,308.45 365.101,305.116 365.5,301.5C 367.167,301.5 368.833,301.5 370.5,301.5C 370.179,306.695 370.513,311.695 371.5,316.5C 371.833,316.5 372.167,316.5 372.5,316.5C 373.487,311.695 373.821,306.695 373.5,301.5C 375.288,301.785 376.955,301.452 378.5,300.5C 378.376,299.893 378.043,299.56 377.5,299.5C 373.833,299.5 370.167,299.5 366.5,299.5C 367.675,294.466 369.009,289.466 370.5,284.5C 372.833,284.5 375.167,284.5 377.5,284.5C 377.5,275.5 377.5,266.5 377.5,257.5C 380.064,248.66 382.398,239.66 384.5,230.5C 388.5,230.5 392.5,230.5 396.5,230.5C 396.5,226.833 396.5,223.167 396.5,219.5C 393.833,219.5 391.167,219.5 388.5,219.5C 391.597,206.86 394.763,194.193 398,181.5C 399.141,179.391 400.641,177.558 402.5,176C 443.5,155.5 484.5,135 525.5,114.5C 526.452,118.161 526.285,121.828 525,125.5C 514.44,162.674 504.607,200.007 495.5,237.5 Z"/></g>
<g><path style="opacity:1" fill="#f1f1f1" d="M 263.5,177.5 C 250.167,177.5 236.833,177.5 223.5,177.5C 222.5,166.675 227.5,162.175 238.5,164C 240.286,164.785 241.786,165.951 243,167.5C 242.749,165.045 242.249,162.545 241.5,160C 242.326,153.582 245.993,150.415 252.5,150.5C 252.176,147.32 253.51,146.153 256.5,147C 261.673,153.501 266.006,160.501 269.5,168C 268.508,171.821 266.508,174.988 263.5,177.5 Z"/></g>
<g><path style="opacity:1" fill="#ededed" d="M 187.5,225.5 C 186.229,223.891 185.229,222.058 184.5,220C 183.207,219.51 181.873,219.343 180.5,219.5C 179.314,207.159 177.981,194.826 176.5,182.5C 176.338,177.496 178.671,175.662 183.5,177C 184.893,178.171 185.727,179.671 186,181.5C 187.391,194.519 188.891,207.519 190.5,220.5C 190.243,222.692 189.243,224.359 187.5,225.5 Z"/></g>
<g><path style="opacity:1" fill="#82dfae" d="M 223.5,177.5 C 236.833,177.5 250.167,177.5 263.5,177.5C 286.169,177.333 308.836,177.5 331.5,178C 332,178.5 332.5,179 333,179.5C 333.5,198.83 333.667,218.164 333.5,237.5C 324.131,238.105 316.964,242.438 312,250.5C 306.542,264.829 310.376,275.996 323.5,284C 325.74,284.977 328.073,285.477 330.5,285.5C 331.209,286.404 332.209,286.737 333.5,286.5C 333.168,329.67 333.501,372.67 334.5,415.5C 334.5,415.833 334.5,416.167 334.5,416.5C 334.5,417.833 334.5,419.167 334.5,420.5C 333.504,420.586 332.671,420.252 332,419.5C 313.471,385.105 294.971,350.772 276.5,316.5C 276.5,316.167 276.5,315.833 276.5,315.5C 280.467,312.799 280.467,309.966 276.5,307C 278.325,305.534 278.825,303.701 278,301.5C 275.096,299.773 271.93,299.107 268.5,299.5C 268.167,299.5 267.833,299.5 267.5,299.5C 265.167,294.833 262.833,290.167 260.5,285.5C 263.167,285.5 265.833,285.5 268.5,285.5C 268.5,276.5 268.5,267.5 268.5,258.5C 272.486,248.261 279.486,245.761 289.5,251C 294.765,255.897 295.932,261.73 293,268.5C 288.415,273.685 282.582,276.018 275.5,275.5C 270.185,283.194 272.185,286.527 281.5,285.5C 292.081,285.793 299.581,281.126 304,271.5C 308.46,248.301 298.96,237.134 275.5,238C 273.167,239.167 270.833,240.333 268.5,241.5C 267.503,234.532 267.17,227.532 267.5,220.5C 264.038,219.518 260.371,219.185 256.5,219.5C 256.5,238.833 256.5,258.167 256.5,277.5C 254.5,274.5 252.5,271.5 250.5,268.5C 250.827,258.319 250.494,248.319 249.5,238.5C 246.167,238.5 242.833,238.5 239.5,238.5C 239.5,240.833 239.5,243.167 239.5,245.5C 239.167,245.5 238.833,245.5 238.5,245.5C 236.324,240.472 233.657,235.806 230.5,231.5C 231.678,227.796 233.011,224.13 234.5,220.5C 231.232,219.513 227.898,219.18 224.5,219.5C 216.967,205.768 209.967,191.768 203.5,177.5C 210.167,177.5 216.833,177.5 223.5,177.5 Z"/></g>
<g><path style="opacity:1" fill="#353535" d="M 180.5,219.5 C 181.873,219.343 183.207,219.51 184.5,220C 185.229,222.058 186.229,223.891 187.5,225.5C 192.384,239.818 198.05,253.818 204.5,267.5C 210.351,254.117 215.518,240.45 220,226.5C 221.054,223.686 222.554,221.353 224.5,219.5C 227.898,219.18 231.232,219.513 234.5,220.5C 233.011,224.13 231.678,227.796 230.5,231.5C 223.784,248.626 217.284,265.959 211,283.5C 206.921,284.629 202.755,284.796 198.5,284C 189.935,262.81 181.269,241.643 172.5,220.5C 175.086,219.52 177.753,219.187 180.5,219.5 Z"/></g>
<g><path style="opacity:1" fill="#3a4741" d="M 267.5,220.5 C 264.167,220.5 260.833,220.5 257.5,220.5C 257.5,241.833 257.5,263.167 257.5,284.5C 257.167,284.5 256.833,284.5 256.5,284.5C 256.5,282.167 256.5,279.833 256.5,277.5C 256.5,258.167 256.5,238.833 256.5,219.5C 260.371,219.185 264.038,219.518 267.5,220.5 Z"/></g>
<g><path style="opacity:1" fill="#323333" d="M 267.5,220.5 C 267.17,227.532 267.503,234.532 268.5,241.5C 270.833,240.333 273.167,239.167 275.5,238C 298.96,237.134 308.46,248.301 304,271.5C 299.581,281.126 292.081,285.793 281.5,285.5C 272.185,286.527 270.185,283.194 275.5,275.5C 282.582,276.018 288.415,273.685 293,268.5C 295.932,261.73 294.765,255.897 289.5,251C 279.486,245.761 272.486,248.261 268.5,258.5C 267.507,266.984 267.174,275.651 267.5,284.5C 264.167,284.5 260.833,284.5 257.5,284.5C 257.5,263.167 257.5,241.833 257.5,220.5C 260.833,220.5 264.167,220.5 267.5,220.5 Z"/></g>
<g><path style="opacity:1" fill="#343534" d="M 347.5,219.5 C 361.167,219.5 374.833,219.5 388.5,219.5C 391.167,219.5 393.833,219.5 396.5,219.5C 396.5,223.167 396.5,226.833 396.5,230.5C 392.5,230.5 388.5,230.5 384.5,230.5C 382.167,230.5 379.833,230.5 377.5,230.5C 377.5,239.5 377.5,248.5 377.5,257.5C 377.5,266.5 377.5,275.5 377.5,284.5C 375.167,284.5 372.833,284.5 370.5,284.5C 369.167,284.5 367.833,284.5 366.5,284.5C 366.5,266.5 366.5,248.5 366.5,230.5C 360.167,230.5 353.833,230.5 347.5,230.5C 347.5,226.833 347.5,223.167 347.5,219.5 Z"/></g>
<g><path style="opacity:1" fill="#5a8974" d="M 238.5,219.5 C 242.5,219.5 246.5,219.5 250.5,219.5C 250.5,223.5 250.5,227.5 250.5,231.5C 246.5,231.5 242.5,231.5 238.5,231.5C 238.5,227.5 238.5,223.5 238.5,219.5 Z"/></g>
<g><path style="opacity:1" fill="#313231" d="M 239.5,220.5 C 242.833,220.5 246.167,220.5 249.5,220.5C 249.5,223.833 249.5,227.167 249.5,230.5C 246.167,230.5 242.833,230.5 239.5,230.5C 239.5,227.167 239.5,223.833 239.5,220.5 Z"/></g>
<g><path style="opacity:1" fill="#bfbfbf" d="M 347.5,219.5 C 347.5,223.167 347.5,226.833 347.5,230.5C 353.833,230.5 360.167,230.5 366.5,230.5C 366.5,248.5 366.5,266.5 366.5,284.5C 365.503,267.008 365.17,249.341 365.5,231.5C 359.167,231.5 352.833,231.5 346.5,231.5C 346.183,227.298 346.517,223.298 347.5,219.5 Z"/></g>
<g><path style="opacity:1" fill="#f4f5f2" d="M 384.5,230.5 C 382.398,239.66 380.064,248.66 377.5,257.5C 377.5,248.5 377.5,239.5 377.5,230.5C 379.833,230.5 382.167,230.5 384.5,230.5 Z"/></g>
<g><path style="opacity:1" fill="#353535" d="M 333.5,237.5 C 345.765,237.933 353.932,243.933 358,255.5C 358.497,258.146 358.664,260.813 358.5,263.5C 357.596,264.209 357.263,265.209 357.5,266.5C 345.655,266.172 333.988,266.505 322.5,267.5C 324.87,271.87 328.537,274.203 333.5,274.5C 336.066,274.656 338.566,274.322 341,273.5C 344.833,275 348.667,276.5 352.5,278C 348.054,282.389 342.721,284.889 336.5,285.5C 334.5,285.5 332.5,285.5 330.5,285.5C 328.073,285.477 325.74,284.977 323.5,284C 310.376,275.996 306.542,264.829 312,250.5C 316.964,242.438 324.131,238.105 333.5,237.5 Z"/></g>
<g><path style="opacity:1" fill="#333433" d="M 408.5,237.5 C 409.5,237.5 410.5,237.5 411.5,237.5C 411.964,241.502 411.298,245.169 409.5,248.5C 404.353,249.473 400.853,252.473 399,257.5C 398.5,266.494 398.334,275.494 398.5,284.5C 394.833,284.5 391.167,284.5 387.5,284.5C 387.5,269.167 387.5,253.833 387.5,238.5C 391.167,238.5 394.833,238.5 398.5,238.5C 398.281,239.675 398.614,240.675 399.5,241.5C 402.148,239.342 405.148,238.008 408.5,237.5 Z"/></g>
<g><path style="opacity:1" fill="#728663" d="M 408.5,237.5 C 409.568,236.566 410.901,236.232 412.5,236.5C 412.5,240.5 412.5,244.5 412.5,248.5C 411.5,248.5 410.5,248.5 409.5,248.5C 411.298,245.169 411.964,241.502 411.5,237.5C 410.5,237.5 409.5,237.5 408.5,237.5 Z"/></g>
<g><path style="opacity:1" fill="#333433" d="M 461.5,238.5 C 461.5,253.833 461.5,269.167 461.5,284.5C 458.167,284.5 454.833,284.5 451.5,284.5C 451.826,275.651 451.493,266.984 450.5,258.5C 446.634,249.406 439.968,246.573 430.5,250C 424.385,254.959 422.885,261.126 426,268.5C 430.145,273.792 435.645,275.958 442.5,275C 444.105,277.543 445.438,280.209 446.5,283C 431.16,288.754 420.327,283.921 414,268.5C 411.189,255.63 415.356,245.796 426.5,239C 434.738,236.427 442.571,237.261 450,241.5C 450.483,240.552 450.649,239.552 450.5,238.5C 454.167,238.5 457.833,238.5 461.5,238.5 Z"/></g>
<g><path style="opacity:1" fill="#353534" d="M 495.5,237.5 C 500.805,238.148 505.138,240.481 508.5,244.5C 506.5,247.167 504.167,249.5 501.5,251.5C 498.502,249.332 495.169,248.332 491.5,248.5C 481.504,249.81 477.338,255.477 479,265.5C 480.274,268.936 482.441,271.603 485.5,273.5C 491.171,275.288 496.504,274.622 501.5,271.5C 511.121,277.822 510.121,282.322 498.5,285C 493.115,285.733 487.782,285.567 482.5,284.5C 470.498,278.159 465.665,268.159 468,254.5C 472.966,242.098 482.132,236.431 495.5,237.5 Z"/></g>
<g><path style="opacity:1" fill="#343434" d="M 557.5,266.5 C 545.482,266.168 533.482,266.501 521.5,267.5C 521.624,268.107 521.957,268.44 522.5,268.5C 526.942,274.419 532.776,276.085 540,273.5C 543.889,274.861 547.722,276.361 551.5,278C 544.241,285.104 535.575,287.438 525.5,285C 509.588,276.931 505.421,264.764 513,248.5C 520.639,237.734 530.806,234.567 543.5,239C 554.626,244.751 559.293,253.918 557.5,266.5 Z"/></g>
<g><path style="opacity:1" fill="#313231" d="M 249.5,238.5 C 249.5,253.833 249.5,269.167 249.5,284.5C 246.167,284.5 242.833,284.5 239.5,284.5C 239.5,271.5 239.5,258.5 239.5,245.5C 239.5,243.167 239.5,240.833 239.5,238.5C 242.833,238.5 246.167,238.5 249.5,238.5 Z"/></g>
<g><path style="opacity:1" fill="#858c89" d="M 249.5,238.5 C 250.494,248.319 250.827,258.319 250.5,268.5C 250.5,274.167 250.5,279.833 250.5,285.5C 246.5,285.5 242.5,285.5 238.5,285.5C 238.5,272.167 238.5,258.833 238.5,245.5C 238.833,245.5 239.167,245.5 239.5,245.5C 239.5,258.5 239.5,271.5 239.5,284.5C 242.833,284.5 246.167,284.5 249.5,284.5C 249.5,269.167 249.5,253.833 249.5,238.5 Z"/></g>
<g><path style="opacity:1" fill="#7fdaaa" d="M 333.5,248.5 C 333.5,250.833 333.5,253.167 333.5,255.5C 329.818,255.665 326.152,255.499 322.5,255C 324.923,250.786 328.59,248.62 333.5,248.5 Z"/></g>
<g><path style="opacity:1" fill="#f3f4f3" d="M 333.5,248.5 C 338.834,248.332 342.834,250.498 345.5,255C 341.514,255.499 337.514,255.666 333.5,255.5C 333.5,253.167 333.5,250.833 333.5,248.5 Z"/></g>
<g><path style="opacity:1" fill="#caf4ac" d="M 491.5,248.5 C 489.347,256.78 487.347,265.113 485.5,273.5C 482.441,271.603 480.274,268.936 479,265.5C 477.338,255.477 481.504,249.81 491.5,248.5 Z"/></g>
<g><path style="opacity:1" fill="#f4f4f4" d="M 544.5,254.5 C 537.167,255.833 529.833,255.833 522.5,254.5C 528,247.86 534.667,246.693 542.5,251C 543.305,252.113 543.972,253.279 544.5,254.5 Z"/></g>
<g><path style="opacity:1" fill="#949494" d="M 522.5,254.5 C 529.833,255.833 537.167,255.833 544.5,254.5C 545.043,254.56 545.376,254.893 545.5,255.5C 537.5,256.833 529.5,256.833 521.5,255.5C 521.624,254.893 521.957,254.56 522.5,254.5 Z"/></g>
<g><path style="opacity:1" fill="#6da988" d="M 268.5,258.5 C 268.5,267.5 268.5,276.5 268.5,285.5C 265.833,285.5 263.167,285.5 260.5,285.5C 258.901,285.768 257.568,285.434 256.5,284.5C 256.833,284.5 257.167,284.5 257.5,284.5C 260.833,284.5 264.167,284.5 267.5,284.5C 267.174,275.651 267.507,266.984 268.5,258.5 Z"/></g>
<g><path style="opacity:1" fill="#788f6a" d="M 461.5,238.5 C 462.496,253.991 462.83,269.658 462.5,285.5C 458.5,285.5 454.5,285.5 450.5,285.5C 450.5,276.5 450.5,267.5 450.5,258.5C 451.493,266.984 451.826,275.651 451.5,284.5C 454.833,284.5 458.167,284.5 461.5,284.5C 461.5,269.167 461.5,253.833 461.5,238.5 Z"/></g>
<g><path style="opacity:1" fill="#5f6562" d="M 358.5,263.5 C 358.5,264.833 358.5,266.167 358.5,267.5C 350.167,267.5 341.833,267.5 333.5,267.5C 329.833,267.5 326.167,267.5 322.5,267.5C 333.988,266.505 345.655,266.172 357.5,266.5C 357.263,265.209 357.596,264.209 358.5,263.5 Z"/></g>
<g><path style="opacity:1" fill="#656565" d="M 557.5,266.5 C 545.833,267.167 534.167,267.833 522.5,268.5C 521.957,268.44 521.624,268.107 521.5,267.5C 533.482,266.501 545.482,266.168 557.5,266.5 Z"/></g>
<g><path style="opacity:1" fill="#81ddac" d="M 322.5,267.5 C 326.167,267.5 329.833,267.5 333.5,267.5C 333.5,269.833 333.5,272.167 333.5,274.5C 328.537,274.203 324.87,271.87 322.5,267.5 Z"/></g>
<g><path style="opacity:1" fill="#dceee2" d="M 330.5,285.5 C 332.5,285.5 334.5,285.5 336.5,285.5C 334.514,328.615 333.847,371.948 334.5,415.5C 333.501,372.67 333.168,329.67 333.5,286.5C 332.209,286.737 331.209,286.404 330.5,285.5 Z"/></g>
<g><path style="opacity:1" fill="#3d4340" d="M 268.5,299.5 C 271.93,299.107 275.096,299.773 278,301.5C 278.825,303.701 278.325,305.534 276.5,307C 280.467,309.966 280.467,312.799 276.5,315.5C 275.508,315.672 274.842,315.338 274.5,314.5C 274.833,314.5 275.167,314.5 275.5,314.5C 277.377,313.341 277.877,311.674 277,309.5C 275.644,308.62 274.144,308.286 272.5,308.5C 271.833,308.5 271.167,308.5 270.5,308.5C 269.686,310.631 269.186,312.964 269,315.5C 268.501,310.177 268.334,304.844 268.5,299.5 Z"/></g>
<g><path style="opacity:1" fill="#3f4c46" d="M 282.5,299.5 C 283.5,299.5 284.5,299.5 285.5,299.5C 285.334,304.179 285.501,308.845 286,313.5C 289.086,315.22 291.419,314.553 293,311.5C 293.173,307.459 293.673,303.459 294.5,299.5C 295.661,303.795 295.828,308.129 295,312.5C 291.645,317.31 287.979,317.644 284,313.5C 282.691,308.934 282.191,304.267 282.5,299.5 Z"/></g>
<g><path style="opacity:1" fill="#38403c" d="M 299.5,299.5 C 300.814,301.915 301.481,304.748 301.5,308C 301.167,310.833 300.833,313.667 300.5,316.5C 299.505,310.872 299.171,305.206 299.5,299.5 Z"/></g>
<g><path style="opacity:1" fill="#343736" d="M 306.5,299.5 C 308.442,304.056 309.108,309.056 308.5,314.5C 311.247,314.187 313.914,314.52 316.5,315.5C 313.232,316.487 309.898,316.82 306.5,316.5C 306.5,310.833 306.5,305.167 306.5,299.5 Z"/></g>
<g><path style="opacity:1" fill="#484848" d="M 338.5,299.5 C 339.5,299.5 340.5,299.5 341.5,299.5C 343.087,315.419 344.754,315.419 346.5,299.5C 347.5,299.5 348.5,299.5 349.5,299.5C 350.35,304.232 351.516,308.899 353,313.5C 353.231,308.574 354.398,303.908 356.5,299.5C 356.833,299.833 357.167,300.167 357.5,300.5C 356.243,305.783 355.243,311.116 354.5,316.5C 353.5,316.5 352.5,316.5 351.5,316.5C 350.399,311.833 349.232,307.166 348,302.5C 347.054,307.163 346.221,311.83 345.5,316.5C 344.178,316.67 343.011,316.337 342,315.5C 341.276,310.047 340.11,304.713 338.5,299.5 Z"/></g>
<g><path style="opacity:1" fill="#3a3a3a" d="M 362.5,311.5 C 362.784,313.415 362.451,315.081 361.5,316.5C 360.184,310.987 360.184,305.32 361.5,299.5C 362.491,303.445 362.824,307.445 362.5,311.5 Z"/></g>
<g><path style="opacity:1" fill="#323232" d="M 366.5,299.5 C 370.167,299.5 373.833,299.5 377.5,299.5C 376.081,300.451 374.415,300.784 372.5,300.5C 372.5,305.833 372.5,311.167 372.5,316.5C 372.167,316.5 371.833,316.5 371.5,316.5C 371.5,311.167 371.5,305.833 371.5,300.5C 369.585,300.784 367.919,300.451 366.5,299.5 Z"/></g>
<g><path style="opacity:1" fill="#343533" d="M 381.5,299.5 C 383.344,301.279 384.01,303.612 383.5,306.5C 386.167,306.5 388.833,306.5 391.5,306.5C 391.192,304.076 391.526,301.743 392.5,299.5C 393.833,305.167 393.833,310.833 392.5,316.5C 391.52,313.914 391.187,311.247 391.5,308.5C 388.833,308.5 386.167,308.5 383.5,308.5C 383.813,311.247 383.48,313.914 382.5,316.5C 381.505,310.872 381.171,305.206 381.5,299.5 Z"/></g>
<g><path style="opacity:1" fill="#4a5346" d="M 416.5,299.5 C 417.814,301.915 418.481,304.748 418.5,308C 418.167,310.833 417.833,313.667 417.5,316.5C 416.505,310.872 416.171,305.206 416.5,299.5 Z"/></g>
<g><path style="opacity:1" fill="#3e423b" d="M 431.5,306.5 C 431.833,307.167 432.167,307.833 432.5,308.5C 436.39,310.627 436.39,313.127 432.5,316C 429.518,316.498 426.518,316.665 423.5,316.5C 423.5,310.833 423.5,305.167 423.5,299.5C 426.518,299.335 429.518,299.502 432.5,300C 435.207,302.696 434.874,304.862 431.5,306.5 Z"/></g>
<g><path style="opacity:1" fill="#3c3f39" d="M 454.5,299.5 C 456.527,299.338 458.527,299.505 460.5,300C 460.957,300.414 461.291,300.914 461.5,301.5C 459.448,301.705 457.114,301.705 454.5,301.5C 454.343,302.873 454.51,304.207 455,305.5C 457.192,306.399 459.358,307.399 461.5,308.5C 463.224,315.186 460.558,317.686 453.5,316C 452.833,315.333 452.167,314.667 451.5,314C 454.133,314.253 456.8,314.253 459.5,314C 460.86,312.062 460.527,310.396 458.5,309C 452.659,307.563 451.326,304.396 454.5,299.5 Z"/></g>
<g><path style="opacity:1" fill="#84dcae" d="M 270.5,301.5 C 272.199,301.34 273.866,301.506 275.5,302C 276.833,303.333 276.833,304.667 275.5,306C 273.866,306.494 272.199,306.66 270.5,306.5C 270.5,304.833 270.5,303.167 270.5,301.5 Z"/></g>
<g><path style="opacity:1" fill="#768c6a" d="M 366.5,299.5 C 367.919,300.451 369.585,300.784 371.5,300.5C 371.5,305.833 371.5,311.167 371.5,316.5C 370.513,311.695 370.179,306.695 370.5,301.5C 368.833,301.5 367.167,301.5 365.5,301.5C 365.328,300.508 365.662,299.842 366.5,299.5 Z"/></g>
<g><path style="opacity:1" fill="#66775a" d="M 377.5,299.5 C 378.043,299.56 378.376,299.893 378.5,300.5C 376.955,301.452 375.288,301.785 373.5,301.5C 373.821,306.695 373.487,311.695 372.5,316.5C 372.5,311.167 372.5,305.833 372.5,300.5C 374.415,300.784 376.081,300.451 377.5,299.5 Z"/></g>
<g><path style="opacity:1" fill="#c2eaa5" d="M 431.5,306.5 C 429.5,306.5 427.5,306.5 425.5,306.5C 425.5,304.833 425.5,303.167 425.5,301.5C 427.527,301.338 429.527,301.505 431.5,302C 432.728,303.49 432.728,304.99 431.5,306.5 Z"/></g>
<g><path style="opacity:1" fill="#3b4640" d="M 319.5,299.5 C 330.991,299.486 333.991,304.486 328.5,314.5C 325.807,316.27 322.807,316.937 319.5,316.5C 319.5,310.833 319.5,305.167 319.5,299.5 Z"/></g>
<g><path style="opacity:1" fill="#81ddac" d="M 321.5,301.5 C 326.578,300.745 328.911,302.912 328.5,308C 328.911,313.088 326.578,315.255 321.5,314.5C 321.5,310.167 321.5,305.833 321.5,301.5 Z"/></g>
<g><path style="opacity:1" fill="#55614d" d="M 448.5,300.5 C 446.393,301.468 444.059,301.802 441.5,301.5C 441.5,303.167 441.5,304.833 441.5,306.5C 449.5,307.167 449.5,307.833 441.5,308.5C 441.5,310.5 441.5,312.5 441.5,314.5C 440.514,310.03 440.181,305.363 440.5,300.5C 443.167,300.5 445.833,300.5 448.5,300.5 Z"/></g>
<g><path style="opacity:1" fill="#f7f8f7" d="M 270.5,308.5 C 271.167,308.5 271.833,308.5 272.5,308.5C 273.5,310.5 274.5,312.5 275.5,314.5C 275.167,314.5 274.833,314.5 274.5,314.5C 273.167,314.5 271.833,314.5 270.5,314.5C 270.5,312.5 270.5,310.5 270.5,308.5 Z"/></g>
<g><path style="opacity:1" fill="#81d2a9" d="M 272.5,308.5 C 274.144,308.286 275.644,308.62 277,309.5C 277.877,311.674 277.377,313.341 275.5,314.5C 274.5,312.5 273.5,310.5 272.5,308.5 Z"/></g>
<g><path style="opacity:1" fill="#c4eda6" d="M 432.5,308.5 C 433.552,313.766 431.219,315.766 425.5,314.5C 425.5,312.5 425.5,310.5 425.5,308.5C 427.833,308.5 430.167,308.5 432.5,308.5 Z"/></g>
<g><path style="opacity:1" fill="#3f433c" d="M 401.5,299.5 C 402.75,299.577 403.583,300.244 404,301.5C 405.335,305.511 406.669,309.511 408,313.5C 409.439,308.795 410.939,304.128 412.5,299.5C 412.833,300.333 413.167,301.167 413.5,302C 411.655,306.701 410.322,311.534 409.5,316.5C 407.876,316.64 406.71,315.973 406,314.5C 404.339,309.515 402.839,304.515 401.5,299.5 Z"/></g>
<g><path style="opacity:1" fill="#646564" d="M 267.5,299.5 C 267.833,299.5 268.167,299.5 268.5,299.5C 268.334,304.844 268.501,310.177 269,315.5C 269.186,312.964 269.686,310.631 270.5,308.5C 270.5,310.5 270.5,312.5 270.5,314.5C 271.833,314.5 273.167,314.5 274.5,314.5C 274.842,315.338 275.508,315.672 276.5,315.5C 276.5,315.833 276.5,316.167 276.5,316.5C 273.5,316.5 270.5,316.5 267.5,316.5C 267.5,310.833 267.5,305.167 267.5,299.5 Z"/></g>
<g><path style="opacity:1" fill="#474e41" d="M 448.5,300.5 C 445.833,300.5 443.167,300.5 440.5,300.5C 440.181,305.363 440.514,310.03 441.5,314.5C 443.924,314.192 446.257,314.526 448.5,315.5C 445.232,316.487 441.898,316.82 438.5,316.5C 438.5,310.833 438.5,305.167 438.5,299.5C 442.042,299.187 445.375,299.521 448.5,300.5 Z"/></g>
<g><path style="opacity:1" fill="#f0f0f0" d="M 224.5,375.5 C 225.643,375.908 226.643,376.575 227.5,377.5C 232.542,383.591 236.542,390.258 239.5,397.5C 237.821,405.016 233.154,408.516 225.5,408C 224.549,407.282 224.383,406.449 225,405.5C 228.31,404.008 231.31,402.008 234,399.5C 234.774,397.597 234.44,395.93 233,394.5C 228.171,403.344 222.171,404.344 215,397.5C 217.419,407.343 213.752,413.343 204,415.5C 193.136,412.015 190.469,405.348 196,395.5C 202.007,391.213 207.674,391.546 213,396.5C 210.048,387.408 213.215,381.408 222.5,378.5C 223.193,377.482 223.859,376.482 224.5,375.5 Z"/></g>
<g><path style="opacity:1" fill="#ededed" d="M 149.5,405.5 C 152.368,405.085 154.535,406.085 156,408.5C 157.924,423.144 159.257,437.811 160,452.5C 157.622,455.93 154.955,456.263 152,453.5C 149.937,439.371 148.104,425.204 146.5,411C 146.613,408.601 147.613,406.768 149.5,405.5 Z"/></g>
</svg>
